<?xml version="1.0" encoding="UTF-8"?>
<svg version="1.1" xmlns="http://www.w3.org/2000/svg" xmlns:xlink="http://www.w3.org/1999/xlink"  viewBox="0 0 1693 475" preserveAspectRatio="xMinYMid meet">
  <g fill="#1927F0">
    <path fill-rule="evenodd" d="M1581.9761,203.3665 C1585.1891,203.3665 1588.1161,201.1365 1588.1161,201.1365 C1588.1161,201.1365 1625.0951,176.4475 1647.5341,155.3955 C1669.9731,134.3445 1692.9031,105.1745 1692.9031,65.7445 C1692.9031,26.3145 1661.2811,0.0005 1629.6841,0.0005 C1598.0871,0.0005 1582.1831,27.3025 1582.1831,27.3025 L1581.7691,27.3025 C1581.7691,27.3025 1565.8651,0.0005 1534.2681,0.0005 C1502.6711,0.0005 1471.0491,26.3145 1471.0491,65.7445 C1471.0491,105.1745 1493.9791,134.3445 1516.4181,155.3955 C1538.8571,176.4475 1575.8361,201.1365 1575.8361,201.1365 C1575.8361,201.1365 1578.7631,203.3665 1581.9761,203.3665 Z M1514.8011,231.5045 C1509.0361,217.3155 1501.1801,205.4985 1491.4491,196.3755 C1481.7031,187.2625 1470.1671,180.4425 1457.1611,176.1105 C1444.2791,171.8145 1430.7091,169.6385 1416.8271,169.6385 C1394.3781,169.6385 1374.2541,174.5265 1357.0111,184.1695 C1344.2021,191.3395 1334.0941,200.2615 1326.8241,210.7865 L1326.8241,12.9045 C1326.8241,10.6195 1324.9721,8.7665 1322.6861,8.7665 L1269.0631,8.7665 C1266.7771,8.7665 1264.9251,10.6195 1264.9251,12.9045 L1264.9251,463.3495 C1264.9251,465.6355 1266.7771,467.4875 1269.0631,467.4875 L1322.6861,467.4875 C1324.9721,467.4875 1326.8241,465.6355 1326.8241,463.3495 L1326.8241,317.9685 C1326.8241,302.1965 1328.7571,288.4035 1332.5711,276.9705 C1336.3261,265.6845 1341.6411,256.2685 1348.3671,248.9755 C1355.0421,241.7485 1362.9271,236.3915 1371.8051,233.0645 C1380.8291,229.6805 1390.7641,227.9645 1401.3361,227.9645 C1409.1771,227.9645 1416.8571,229.1955 1424.1551,231.6235 C1431.2761,234.0025 1437.6671,237.8945 1443.1461,243.1865 C1448.6371,248.4975 1453.1151,255.6125 1456.4581,264.3335 C1459.8361,273.1525 1461.5471,283.9815 1461.5471,296.5165 L1461.5471,463.3495 C1461.5471,465.6355 1463.4001,467.4875 1465.6851,467.4875 L1519.3091,467.4875 C1521.5941,467.4875 1523.4461,465.6355 1523.4461,463.3495 L1523.4461,281.6215 C1523.4461,262.5135 1520.5371,245.6525 1514.8011,231.5045 Z M1050.9671,257.0735 C1057.9021,248.2675 1066.6431,241.2375 1076.9501,236.1805 C1087.2421,231.1255 1099.5591,228.5615 1113.5561,228.5615 C1127.9391,228.5615 1140.4551,231.1255 1150.7591,236.1805 C1161.1901,241.3045 1171.3251,248.9405 1180.8801,258.8705 C1182.4361,260.4905 1184.9971,260.5645 1186.6501,259.0615 L1227.1671,222.1195 C1227.9801,221.3765 1228.4651,220.3425 1228.5141,219.2425 C1228.5601,218.1405 1228.1671,217.0675 1227.4221,216.2595 C1213.1561,200.7745 1196.0991,189.0955 1176.7251,181.5415 C1157.4581,174.0415 1137.0081,170.2365 1115.9391,170.2365 C1093.2611,170.2365 1072.3911,174.0485 1053.9031,181.5635 C1035.3721,189.1015 1019.2681,199.7405 1006.0401,213.1785 C992.8031,226.6165 982.3751,242.9215 975.0451,261.6435 C967.7411,280.3185 964.0371,301.0715 964.0371,323.3315 C964.0371,345.6005 967.7431,366.2605 975.0501,384.7335 C982.3791,403.2655 992.9231,419.3845 1006.3831,432.6345 C1019.8271,445.8785 1036.0291,456.3035 1054.5351,463.6215 C1073.0081,470.9295 1093.6671,474.6375 1115.9391,474.6375 C1136.9721,474.6375 1157.1951,471.1435 1176.0491,464.2555 C1195.0641,457.3045 1211.9591,445.7035 1226.2671,429.7665 C1227.7361,428.1315 1227.6681,425.6325 1226.1131,424.0775 L1187.9801,385.9465 C1187.1741,385.1375 1186.0771,384.6795 1184.9291,384.7375 C1183.7881,384.7695 1182.7131,385.2735 1181.9561,386.1305 C1173.2121,396.0125 1163.6101,403.6085 1153.4131,408.7065 C1143.3191,413.7525 1130.9111,416.3125 1116.5341,416.3125 C1103.2611,416.3125 1091.2011,413.9275 1080.6841,409.2235 C1070.1361,404.5205 1060.9781,397.9385 1053.4571,389.6605 C1045.9091,381.3685 1039.9691,371.4965 1035.8031,360.3115 C1031.6281,349.1375 1029.5101,337.0925 1029.5101,324.5205 C1029.5101,311.8815 1031.3511,299.5685 1034.9831,287.9155 C1038.5891,276.3395 1043.9661,265.9595 1050.9671,257.0735 Z M938.4731,408.5285 C937.1951,407.7885 935.6221,407.7785 934.3441,408.5155 C929.2331,411.4375 923.4681,413.4805 917.2081,414.5865 C910.7231,415.7305 904.3511,416.3125 898.2651,416.3125 C888.8491,416.3125 881.7321,414.6615 877.1091,411.4055 C872.3481,408.0595 868.9211,403.7705 866.6281,398.2915 C864.2391,392.6085 862.8431,386.0625 862.4771,378.8285 C862.0861,371.2735 861.8871,363.4255 861.8871,355.5055 L861.8871,231.5395 L934.6101,231.5395 C936.8961,231.5395 938.7481,229.6865 938.7481,227.4015 L938.7481,180.9275 C938.7481,178.6415 936.8961,176.7895 934.6101,176.7895 L861.8871,176.7895 L861.8871,101.6835 C861.8871,99.3985 860.0351,97.5465 857.7491,97.5465 L804.1241,97.5465 C801.8391,97.5465 799.9871,99.3985 799.9871,101.6835 L799.9871,176.7895 L742.1581,176.7895 C739.8721,176.7895 738.0201,178.6415 738.0201,180.9275 L738.0201,227.4015 C738.0201,229.6865 739.8721,231.5395 742.1581,231.5395 L799.9871,231.5395 L799.9871,374.5705 C799.9871,386.2015 800.4951,397.8515 801.4931,409.1915 C802.5281,421.0675 805.9201,431.9745 811.5791,441.6105 C817.3251,451.4025 826.3141,459.4585 838.2981,465.5485 C850.1641,471.5805 866.9321,474.6375 888.1361,474.6375 C893.9151,474.6375 901.7981,473.9425 912.2361,472.5135 C922.8461,471.0535 931.6571,468.3805 938.4261,464.5755 C939.7291,463.8415 940.5361,462.4645 940.5361,460.9675 L940.5361,412.1075 C940.5361,410.6335 939.7501,409.2685 938.4731,408.5285 Z M640.4731,331.6385 C627.9921,331.6385 615.0051,332.3345 601.8741,333.7015 C588.9751,335.0555 577.0761,337.6835 566.5121,341.5175 C556.2271,345.2615 547.7301,350.5335 541.2571,357.1955 C535.0271,363.6025 531.9991,371.6225 531.9991,381.7215 C531.9991,396.6555 536.7471,407.0225 546.5141,413.4135 C556.6981,420.0825 570.8691,423.4635 588.6371,423.4635 C602.6451,423.4635 614.6701,421.0945 624.3791,416.4265 C634.0981,411.7555 642.0331,405.6225 647.9681,398.2045 C653.9481,390.7235 658.3071,382.2905 660.9251,373.1355 C663.5861,363.8035 664.9351,354.4645 664.9351,345.3775 L664.9351,331.6385 L640.4731,331.6385 Z M723.8511,439.3185 C724.2371,447.5465 724.8311,455.4815 725.6201,462.9135 C725.7431,464.0805 725.3671,465.2445 724.5811,466.1165 C723.7971,466.9895 722.6791,467.4875 721.5051,467.4875 L673.8391,467.4875 C671.6881,467.4875 669.8941,465.8395 669.7161,463.6925 C668.8291,453.0515 668.2671,442.2995 668.0351,431.6095 C657.0851,445.8745 644.4251,456.3895 630.2971,462.9325 C613.5191,470.7005 593.8901,474.6375 571.9541,474.6375 C558.5031,474.6375 545.4741,472.7755 533.2261,469.1005 C520.8531,465.3895 509.8611,459.7295 500.5511,452.2785 C491.1621,444.7685 483.6641,435.3755 478.2681,424.3555 C472.8501,413.3255 470.1011,400.3835 470.1011,385.8905 C470.1011,366.8775 474.4401,350.6765 483.0021,337.7325 C491.4761,324.9085 503.1941,314.3355 517.8281,306.2995 C532.2351,298.3795 549.3001,292.6155 568.5431,289.1695 C587.5881,285.7655 608.1801,284.0395 629.7491,284.0395 L664.9351,284.0395 L664.9351,276.2625 C664.9351,269.6745 663.6261,262.9605 661.0451,256.3065 C658.4761,249.7095 654.5621,243.6585 649.4131,238.3215 C644.2731,233.0075 637.7331,228.7175 629.9811,225.5755 C622.1641,222.4205 612.6621,220.8165 601.7451,220.8165 C591.8231,220.8165 583.0481,221.7735 575.6621,223.6655 C568.1751,225.5885 561.3041,228.0065 555.2401,230.8505 C549.1901,233.6855 543.6331,237.0385 538.7261,240.8135 C533.5461,244.7965 528.5691,248.5785 523.7901,252.1635 C522.1221,253.4175 519.7791,253.2295 518.3291,251.7235 L486.1551,218.3565 C485.3821,217.5545 484.9651,216.4755 484.9981,215.3635 C485.0321,214.2515 485.5121,213.1975 486.3311,212.4445 C501.7731,198.2185 519.8961,187.4055 540.1991,180.3005 C560.4301,173.2265 580.9351,169.6385 601.1491,169.6385 C622.1511,169.6385 640.5471,172.3215 655.8291,177.6135 C671.1901,182.9445 684.0041,190.2465 693.9141,199.3265 C703.8571,208.4455 711.3241,219.0745 716.1071,230.9195 C720.8541,242.6945 723.2601,255.1435 723.2601,267.9185 L723.2601,412.1075 C723.2601,421.9825 723.4591,431.1375 723.8511,439.3185 Z M430.3371,251.9145 C433.3561,267.0105 434.8871,282.8175 434.8871,298.9025 L434.8871,463.3495 C434.8871,465.6355 433.0341,467.4875 430.7491,467.4875 L377.1241,467.4875 C374.8381,467.4875 372.9861,465.6355 372.9861,463.3495 L372.9861,306.0535 C372.9861,295.5965 372.2981,285.3615 370.9411,275.6405 C369.6241,266.2835 366.8911,257.9665 362.8181,250.9255 C358.8291,244.0495 353.1231,238.4445 345.8651,234.2645 C338.5791,230.0845 328.6471,227.9645 316.3501,227.9645 C292.0801,227.9645 274.5771,235.3885 264.3271,250.0325 C253.7531,265.1385 248.3921,284.9865 248.3921,309.0305 L248.3921,463.3495 C248.3921,465.6355 246.5391,467.4875 244.2541,467.4875 L190.6311,467.4875 C188.3451,467.4875 186.4931,465.6355 186.4931,463.3495 L186.4931,315.5865 C186.4931,302.3425 185.8031,290.0845 184.4401,279.1555 C183.1081,268.5555 180.4431,259.2945 176.5201,251.6305 C172.7301,244.2365 167.2471,238.3865 160.2251,234.2415 C153.1511,230.0785 143.3331,227.9645 131.0481,227.9645 C122.1241,227.9645 113.3451,229.7585 104.9501,233.2985 C96.6201,236.8245 89.1961,242.1835 82.8911,249.2305 C76.5391,256.3235 71.4071,265.5615 67.6401,276.6915 C63.8301,287.9255 61.8991,301.4085 61.8991,316.7755 L61.8991,463.3495 C61.8991,465.6355 60.0461,467.4875 57.7611,467.4875 L4.1381,467.4875 C1.8521,467.4875 0.0001,465.6355 0.0001,463.3495 L0.0001,180.9275 C0.0001,178.6415 1.8521,176.7895 4.1381,176.7895 L54.1861,176.7895 C56.4711,176.7895 58.3241,178.6415 58.3241,180.9275 L58.3241,211.3935 C59.2691,210.1335 60.3071,208.8275 61.4351,207.4725 C66.6101,201.2625 73.3021,195.2965 81.3251,189.7425 C89.3121,184.2115 98.8561,179.4335 109.6891,175.5455 C120.6201,171.6275 132.8181,169.6385 145.9441,169.6385 C167.6591,169.6385 186.2251,174.2555 201.1281,183.3575 C214.1621,191.3235 225.2471,202.8865 234.1521,217.7845 C243.3571,202.8075 255.7021,191.2035 270.9341,183.2215 C288.1511,174.2105 305.8361,169.6385 323.5001,169.6385 C345.9041,169.6385 364.5811,173.4015 379.0171,180.8235 C393.4631,188.2555 405.0031,198.2305 413.3171,210.4785 C421.5391,222.6145 427.2661,236.5535 430.3371,251.9145 Z"/>
  </g>
</svg>